<mxfile host="app.diagrams.net" agent="Mozilla/5.0 (Windows NT 10.0; Win64; x64) AppleWebKit/537.36 (KHTML, like Gecko) Chrome/136.0.0.0 Safari/537.36" version="27.0.9">
  <diagram name="Página-1" id="VptxOPeHdN-iXwJGRVR5">
    <mxGraphModel grid="1" page="1" gridSize="10" guides="1" tooltips="1" connect="1" arrows="1" fold="1" pageScale="1" pageWidth="827" pageHeight="1169" math="0" shadow="0">
      <root>
        <mxCell id="0" />
        <mxCell id="1" parent="0" />
        <mxCell id="wKDr3arcscV5EmYd3ngJ-1" value="validate_table_id(tid)" style="whiteSpace=wrap;strokeWidth=2;verticalAlign=top;" vertex="1" parent="1">
          <mxGeometry x="20" y="148" width="579" height="720" as="geometry" />
        </mxCell>
        <mxCell id="wKDr3arcscV5EmYd3ngJ-2" value="validate_table_id(tid)" style="shape=trapezoid;perimeter=trapezoidPerimeter;fixedSize=1;strokeWidth=2;whiteSpace=wrap;" vertex="1" parent="wKDr3arcscV5EmYd3ngJ-1">
          <mxGeometry x="183" y="46" width="211" height="39" as="geometry" />
        </mxCell>
        <mxCell id="wKDr3arcscV5EmYd3ngJ-3" value="reserved_ids = {0, 253, 254, 255}" style="whiteSpace=wrap;strokeWidth=2;" vertex="1" parent="wKDr3arcscV5EmYd3ngJ-1">
          <mxGeometry x="158" y="160" width="260" height="78" as="geometry" />
        </mxCell>
        <mxCell id="wKDr3arcscV5EmYd3ngJ-4" value="¿tid en reserved_ids?" style="rhombus;strokeWidth=2;whiteSpace=wrap;" vertex="1" parent="wKDr3arcscV5EmYd3ngJ-1">
          <mxGeometry x="187" y="313" width="203" height="203" as="geometry" />
        </mxCell>
        <mxCell id="wKDr3arcscV5EmYd3ngJ-5" value="Retornar (válido)" style="whiteSpace=wrap;strokeWidth=2;" vertex="1" parent="wKDr3arcscV5EmYd3ngJ-1">
          <mxGeometry x="63" y="625" width="182" height="54" as="geometry" />
        </mxCell>
        <mxCell id="wKDr3arcscV5EmYd3ngJ-6" value="Lanzar ValueError:&#xa;        &#39;Table ID es valor reservado&#39;" style="whiteSpace=wrap;strokeWidth=2;" vertex="1" parent="wKDr3arcscV5EmYd3ngJ-1">
          <mxGeometry x="294" y="613" width="258" height="78" as="geometry" />
        </mxCell>
        <mxCell id="wKDr3arcscV5EmYd3ngJ-7" value="" style="curved=1;startArrow=none;endArrow=block;exitX=0.5;exitY=1;entryX=0.5;entryY=-0.01;rounded=0;exitDx=0;exitDy=0;" edge="1" parent="wKDr3arcscV5EmYd3ngJ-1" source="wKDr3arcscV5EmYd3ngJ-2" target="wKDr3arcscV5EmYd3ngJ-3">
          <mxGeometry relative="1" as="geometry">
            <Array as="points" />
          </mxGeometry>
        </mxCell>
        <mxCell id="wKDr3arcscV5EmYd3ngJ-8" value="" style="curved=1;startArrow=none;endArrow=block;exitX=0.5;exitY=0.99;entryX=0.5;entryY=0;rounded=0;" edge="1" parent="wKDr3arcscV5EmYd3ngJ-1" source="wKDr3arcscV5EmYd3ngJ-3" target="wKDr3arcscV5EmYd3ngJ-4">
          <mxGeometry relative="1" as="geometry">
            <Array as="points" />
          </mxGeometry>
        </mxCell>
        <mxCell id="wKDr3arcscV5EmYd3ngJ-9" value="No" style="curved=1;startArrow=none;endArrow=block;exitX=0.05;exitY=1;entryX=0.5;entryY=0;rounded=0;" edge="1" parent="wKDr3arcscV5EmYd3ngJ-1" source="wKDr3arcscV5EmYd3ngJ-4" target="wKDr3arcscV5EmYd3ngJ-5">
          <mxGeometry relative="1" as="geometry">
            <Array as="points">
              <mxPoint x="153" y="564" />
            </Array>
          </mxGeometry>
        </mxCell>
        <mxCell id="wKDr3arcscV5EmYd3ngJ-10" value="Sí" style="curved=1;startArrow=none;endArrow=block;exitX=0.95;exitY=1;entryX=0.5;entryY=0;rounded=0;" edge="1" parent="wKDr3arcscV5EmYd3ngJ-1" source="wKDr3arcscV5EmYd3ngJ-4" target="wKDr3arcscV5EmYd3ngJ-6">
          <mxGeometry relative="1" as="geometry">
            <Array as="points">
              <mxPoint x="423" y="564" />
            </Array>
          </mxGeometry>
        </mxCell>
        <mxCell id="wKDr3arcscV5EmYd3ngJ-11" value="table_entry_exists(tid)" style="whiteSpace=wrap;strokeWidth=2;verticalAlign=top;" vertex="1" parent="1">
          <mxGeometry x="649" y="169" width="330" height="678" as="geometry" />
        </mxCell>
        <mxCell id="wKDr3arcscV5EmYd3ngJ-12" value="table_entry_exists(tid)" style="shape=trapezoid;perimeter=trapezoidPerimeter;fixedSize=1;strokeWidth=2;whiteSpace=wrap;" vertex="1" parent="wKDr3arcscV5EmYd3ngJ-11">
          <mxGeometry x="64" y="46" width="218" height="39" as="geometry" />
        </mxCell>
        <mxCell id="wKDr3arcscV5EmYd3ngJ-13" value="entry = f&#39;{tid} tunnel{tid}&#39;" style="whiteSpace=wrap;strokeWidth=2;" vertex="1" parent="wKDr3arcscV5EmYd3ngJ-11">
          <mxGeometry x="53" y="160" width="241" height="54" as="geometry" />
        </mxCell>
        <mxCell id="wKDr3arcscV5EmYd3ngJ-14" value="cmd = &#39;grep -qx {entry} /etc/iproute2/rt_tables&#39;" style="whiteSpace=wrap;strokeWidth=2;" vertex="1" parent="wKDr3arcscV5EmYd3ngJ-11">
          <mxGeometry x="43" y="289" width="260" height="78" as="geometry" />
        </mxCell>
        <mxCell id="wKDr3arcscV5EmYd3ngJ-15" value="ssh_ru(cmd)" style="whiteSpace=wrap;strokeWidth=2;" vertex="1" parent="wKDr3arcscV5EmYd3ngJ-11">
          <mxGeometry x="100" y="442" width="147" height="54" as="geometry" />
        </mxCell>
        <mxCell id="wKDr3arcscV5EmYd3ngJ-16" value="Retornar proc.returncode == 0" style="whiteSpace=wrap;strokeWidth=2;" vertex="1" parent="wKDr3arcscV5EmYd3ngJ-11">
          <mxGeometry x="43" y="571" width="260" height="78" as="geometry" />
        </mxCell>
        <mxCell id="wKDr3arcscV5EmYd3ngJ-17" value="" style="curved=1;startArrow=none;endArrow=block;exitX=0.5;exitY=0.99;entryX=0.5;entryY=-0.01;rounded=0;" edge="1" parent="wKDr3arcscV5EmYd3ngJ-11" source="wKDr3arcscV5EmYd3ngJ-12" target="wKDr3arcscV5EmYd3ngJ-13">
          <mxGeometry relative="1" as="geometry">
            <Array as="points" />
          </mxGeometry>
        </mxCell>
        <mxCell id="wKDr3arcscV5EmYd3ngJ-18" value="" style="curved=1;startArrow=none;endArrow=block;exitX=0.5;exitY=0.99;entryX=0.5;entryY=-0.01;rounded=0;" edge="1" parent="wKDr3arcscV5EmYd3ngJ-11" source="wKDr3arcscV5EmYd3ngJ-13" target="wKDr3arcscV5EmYd3ngJ-14">
          <mxGeometry relative="1" as="geometry">
            <Array as="points" />
          </mxGeometry>
        </mxCell>
        <mxCell id="wKDr3arcscV5EmYd3ngJ-19" value="" style="curved=1;startArrow=none;endArrow=block;exitX=0.5;exitY=0.99;entryX=0.5;entryY=-0.01;rounded=0;" edge="1" parent="wKDr3arcscV5EmYd3ngJ-11" source="wKDr3arcscV5EmYd3ngJ-14" target="wKDr3arcscV5EmYd3ngJ-15">
          <mxGeometry relative="1" as="geometry">
            <Array as="points" />
          </mxGeometry>
        </mxCell>
        <mxCell id="wKDr3arcscV5EmYd3ngJ-20" value="" style="curved=1;startArrow=none;endArrow=block;exitX=0.5;exitY=0.99;entryX=0.5;entryY=-0.01;rounded=0;" edge="1" parent="wKDr3arcscV5EmYd3ngJ-11" source="wKDr3arcscV5EmYd3ngJ-15" target="wKDr3arcscV5EmYd3ngJ-16">
          <mxGeometry relative="1" as="geometry">
            <Array as="points" />
          </mxGeometry>
        </mxCell>
        <mxCell id="wKDr3arcscV5EmYd3ngJ-21" value="route_exists(dest, tid)" style="whiteSpace=wrap;strokeWidth=2;verticalAlign=top;" vertex="1" parent="1">
          <mxGeometry x="1029" y="20" width="568" height="977" as="geometry" />
        </mxCell>
        <mxCell id="wKDr3arcscV5EmYd3ngJ-22" value="route_exists(dest, tid)" style="shape=trapezoid;perimeter=trapezoidPerimeter;fixedSize=1;strokeWidth=2;whiteSpace=wrap;" vertex="1" parent="wKDr3arcscV5EmYd3ngJ-21">
          <mxGeometry x="173" y="46" width="214" height="39" as="geometry" />
        </mxCell>
        <mxCell id="wKDr3arcscV5EmYd3ngJ-23" value="cmd = &#39;ip -6 route show table tunnel{tid}&#39;" style="whiteSpace=wrap;strokeWidth=2;" vertex="1" parent="wKDr3arcscV5EmYd3ngJ-21">
          <mxGeometry x="150" y="160" width="260" height="78" as="geometry" />
        </mxCell>
        <mxCell id="wKDr3arcscV5EmYd3ngJ-24" value="ssh_ru(cmd)" style="whiteSpace=wrap;strokeWidth=2;" vertex="1" parent="wKDr3arcscV5EmYd3ngJ-21">
          <mxGeometry x="206" y="313" width="147" height="54" as="geometry" />
        </mxCell>
        <mxCell id="wKDr3arcscV5EmYd3ngJ-25" value="¿returncode != 0?" style="rhombus;strokeWidth=2;whiteSpace=wrap;" vertex="1" parent="wKDr3arcscV5EmYd3ngJ-21">
          <mxGeometry x="191" y="442" width="177" height="177" as="geometry" />
        </mxCell>
        <mxCell id="wKDr3arcscV5EmYd3ngJ-26" value="Retornar False" style="whiteSpace=wrap;strokeWidth=2;" vertex="1" parent="wKDr3arcscV5EmYd3ngJ-21">
          <mxGeometry x="67" y="728" width="163" height="54" as="geometry" />
        </mxCell>
        <mxCell id="wKDr3arcscV5EmYd3ngJ-27" value="Buscar dest en líneas de salida" style="whiteSpace=wrap;strokeWidth=2;" vertex="1" parent="wKDr3arcscV5EmYd3ngJ-21">
          <mxGeometry x="281" y="716" width="260" height="78" as="geometry" />
        </mxCell>
        <mxCell id="wKDr3arcscV5EmYd3ngJ-28" value="Retornar resultado búsqueda" style="whiteSpace=wrap;strokeWidth=2;" vertex="1" parent="wKDr3arcscV5EmYd3ngJ-21">
          <mxGeometry x="281" y="869" width="260" height="78" as="geometry" />
        </mxCell>
        <mxCell id="wKDr3arcscV5EmYd3ngJ-29" value="" style="curved=1;startArrow=none;endArrow=block;exitX=0.5;exitY=0.99;entryX=0.5;entryY=-0.01;rounded=0;" edge="1" parent="wKDr3arcscV5EmYd3ngJ-21" source="wKDr3arcscV5EmYd3ngJ-22" target="wKDr3arcscV5EmYd3ngJ-23">
          <mxGeometry relative="1" as="geometry">
            <Array as="points" />
          </mxGeometry>
        </mxCell>
        <mxCell id="wKDr3arcscV5EmYd3ngJ-30" value="" style="curved=1;startArrow=none;endArrow=block;exitX=0.5;exitY=0.99;entryX=0.5;entryY=-0.01;rounded=0;" edge="1" parent="wKDr3arcscV5EmYd3ngJ-21" source="wKDr3arcscV5EmYd3ngJ-23" target="wKDr3arcscV5EmYd3ngJ-24">
          <mxGeometry relative="1" as="geometry">
            <Array as="points" />
          </mxGeometry>
        </mxCell>
        <mxCell id="wKDr3arcscV5EmYd3ngJ-31" value="" style="curved=1;startArrow=none;endArrow=block;exitX=0.5;exitY=0.99;entryX=0.5;entryY=0;rounded=0;" edge="1" parent="wKDr3arcscV5EmYd3ngJ-21" source="wKDr3arcscV5EmYd3ngJ-24" target="wKDr3arcscV5EmYd3ngJ-25">
          <mxGeometry relative="1" as="geometry">
            <Array as="points" />
          </mxGeometry>
        </mxCell>
        <mxCell id="wKDr3arcscV5EmYd3ngJ-32" value="Sí" style="curved=1;startArrow=none;endArrow=block;exitX=0.02;exitY=1;entryX=0.5;entryY=0;rounded=0;" edge="1" parent="wKDr3arcscV5EmYd3ngJ-21" source="wKDr3arcscV5EmYd3ngJ-25" target="wKDr3arcscV5EmYd3ngJ-26">
          <mxGeometry relative="1" as="geometry">
            <Array as="points">
              <mxPoint x="149" y="667" />
            </Array>
          </mxGeometry>
        </mxCell>
        <mxCell id="wKDr3arcscV5EmYd3ngJ-33" value="No" style="curved=1;startArrow=none;endArrow=block;exitX=0.98;exitY=1;entryX=0.5;entryY=0;rounded=0;" edge="1" parent="wKDr3arcscV5EmYd3ngJ-21" source="wKDr3arcscV5EmYd3ngJ-25" target="wKDr3arcscV5EmYd3ngJ-27">
          <mxGeometry relative="1" as="geometry">
            <Array as="points">
              <mxPoint x="411" y="667" />
            </Array>
          </mxGeometry>
        </mxCell>
        <mxCell id="wKDr3arcscV5EmYd3ngJ-34" value="" style="curved=1;startArrow=none;endArrow=block;exitX=0.5;exitY=1;entryX=0.5;entryY=0;rounded=0;" edge="1" parent="wKDr3arcscV5EmYd3ngJ-21" source="wKDr3arcscV5EmYd3ngJ-27" target="wKDr3arcscV5EmYd3ngJ-28">
          <mxGeometry relative="1" as="geometry">
            <Array as="points" />
          </mxGeometry>
        </mxCell>
        <mxCell id="wKDr3arcscV5EmYd3ngJ-35" value="rule_exists(dest, tid)" style="whiteSpace=wrap;strokeWidth=2;verticalAlign=top;" vertex="1" parent="1">
          <mxGeometry x="1647" y="20" width="561" height="977" as="geometry" />
        </mxCell>
        <mxCell id="wKDr3arcscV5EmYd3ngJ-36" value="rule_exists(dest, tid)" style="shape=trapezoid;perimeter=trapezoidPerimeter;fixedSize=1;strokeWidth=2;whiteSpace=wrap;" vertex="1" parent="wKDr3arcscV5EmYd3ngJ-35">
          <mxGeometry x="174" y="46" width="204" height="39" as="geometry" />
        </mxCell>
        <mxCell id="wKDr3arcscV5EmYd3ngJ-37" value="cmd = &#39;ip -6 rule show to {dest}/64&#39;" style="whiteSpace=wrap;strokeWidth=2;" vertex="1" parent="wKDr3arcscV5EmYd3ngJ-35">
          <mxGeometry x="146" y="160" width="260" height="78" as="geometry" />
        </mxCell>
        <mxCell id="wKDr3arcscV5EmYd3ngJ-38" value="ssh_ru(cmd)" style="whiteSpace=wrap;strokeWidth=2;" vertex="1" parent="wKDr3arcscV5EmYd3ngJ-35">
          <mxGeometry x="203" y="313" width="147" height="54" as="geometry" />
        </mxCell>
        <mxCell id="wKDr3arcscV5EmYd3ngJ-39" value="¿returncode != 0?" style="rhombus;strokeWidth=2;whiteSpace=wrap;" vertex="1" parent="wKDr3arcscV5EmYd3ngJ-35">
          <mxGeometry x="188" y="442" width="177" height="177" as="geometry" />
        </mxCell>
        <mxCell id="wKDr3arcscV5EmYd3ngJ-40" value="Retornar False" style="whiteSpace=wrap;strokeWidth=2;" vertex="1" parent="wKDr3arcscV5EmYd3ngJ-35">
          <mxGeometry x="67" y="728" width="163" height="54" as="geometry" />
        </mxCell>
        <mxCell id="wKDr3arcscV5EmYd3ngJ-41" value="Buscar &#39;lookup tunnel{tid}&#39;&#xa;        en líneas de salida" style="whiteSpace=wrap;strokeWidth=2;" vertex="1" parent="wKDr3arcscV5EmYd3ngJ-35">
          <mxGeometry x="281" y="716" width="247" height="78" as="geometry" />
        </mxCell>
        <mxCell id="wKDr3arcscV5EmYd3ngJ-42" value="Retornar resultado búsqueda" style="whiteSpace=wrap;strokeWidth=2;" vertex="1" parent="wKDr3arcscV5EmYd3ngJ-35">
          <mxGeometry x="274" y="869" width="260" height="78" as="geometry" />
        </mxCell>
        <mxCell id="wKDr3arcscV5EmYd3ngJ-43" value="" style="curved=1;startArrow=none;endArrow=block;exitX=0.5;exitY=0.99;entryX=0.5;entryY=-0.01;rounded=0;" edge="1" parent="wKDr3arcscV5EmYd3ngJ-35" source="wKDr3arcscV5EmYd3ngJ-36" target="wKDr3arcscV5EmYd3ngJ-37">
          <mxGeometry relative="1" as="geometry">
            <Array as="points" />
          </mxGeometry>
        </mxCell>
        <mxCell id="wKDr3arcscV5EmYd3ngJ-44" value="" style="curved=1;startArrow=none;endArrow=block;exitX=0.5;exitY=0.99;entryX=0.5;entryY=-0.01;rounded=0;" edge="1" parent="wKDr3arcscV5EmYd3ngJ-35" source="wKDr3arcscV5EmYd3ngJ-37" target="wKDr3arcscV5EmYd3ngJ-38">
          <mxGeometry relative="1" as="geometry">
            <Array as="points" />
          </mxGeometry>
        </mxCell>
        <mxCell id="wKDr3arcscV5EmYd3ngJ-45" value="" style="curved=1;startArrow=none;endArrow=block;exitX=0.5;exitY=0.99;entryX=0.5;entryY=0;rounded=0;" edge="1" parent="wKDr3arcscV5EmYd3ngJ-35" source="wKDr3arcscV5EmYd3ngJ-38" target="wKDr3arcscV5EmYd3ngJ-39">
          <mxGeometry relative="1" as="geometry">
            <Array as="points" />
          </mxGeometry>
        </mxCell>
        <mxCell id="wKDr3arcscV5EmYd3ngJ-46" value="Sí" style="curved=1;startArrow=none;endArrow=block;exitX=0.03;exitY=1;entryX=0.5;entryY=0;rounded=0;" edge="1" parent="wKDr3arcscV5EmYd3ngJ-35" source="wKDr3arcscV5EmYd3ngJ-39" target="wKDr3arcscV5EmYd3ngJ-40">
          <mxGeometry relative="1" as="geometry">
            <Array as="points">
              <mxPoint x="149" y="667" />
            </Array>
          </mxGeometry>
        </mxCell>
        <mxCell id="wKDr3arcscV5EmYd3ngJ-47" value="No" style="curved=1;startArrow=none;endArrow=block;exitX=0.96;exitY=1;entryX=0.5;entryY=0;rounded=0;" edge="1" parent="wKDr3arcscV5EmYd3ngJ-35" source="wKDr3arcscV5EmYd3ngJ-39" target="wKDr3arcscV5EmYd3ngJ-41">
          <mxGeometry relative="1" as="geometry">
            <Array as="points">
              <mxPoint x="404" y="667" />
            </Array>
          </mxGeometry>
        </mxCell>
        <mxCell id="wKDr3arcscV5EmYd3ngJ-48" value="" style="curved=1;startArrow=none;endArrow=block;exitX=0.5;exitY=1;entryX=0.5;entryY=0;rounded=0;" edge="1" parent="wKDr3arcscV5EmYd3ngJ-35" source="wKDr3arcscV5EmYd3ngJ-41" target="wKDr3arcscV5EmYd3ngJ-42">
          <mxGeometry relative="1" as="geometry">
            <Array as="points" />
          </mxGeometry>
        </mxCell>
        <mxCell id="wKDr3arcscV5EmYd3ngJ-49" value="load_loopbacks()" style="whiteSpace=wrap;strokeWidth=2;verticalAlign=top;" vertex="1" parent="1">
          <mxGeometry x="2258" y="145" width="330" height="726" as="geometry" />
        </mxCell>
        <mxCell id="wKDr3arcscV5EmYd3ngJ-50" value="load_loopbacks(path)" style="shape=trapezoid;perimeter=trapezoidPerimeter;fixedSize=1;strokeWidth=2;whiteSpace=wrap;" vertex="1" parent="wKDr3arcscV5EmYd3ngJ-49">
          <mxGeometry x="69" y="46" width="208" height="39" as="geometry" />
        </mxCell>
        <mxCell id="wKDr3arcscV5EmYd3ngJ-51" value="Abrir /app/networkinfo.json" style="whiteSpace=wrap;strokeWidth=2;" vertex="1" parent="wKDr3arcscV5EmYd3ngJ-49">
          <mxGeometry x="43" y="160" width="260" height="78" as="geometry" />
        </mxCell>
        <mxCell id="wKDr3arcscV5EmYd3ngJ-52" value="data = json.load(f)" style="whiteSpace=wrap;strokeWidth=2;" vertex="1" parent="wKDr3arcscV5EmYd3ngJ-49">
          <mxGeometry x="76" y="313" width="194" height="54" as="geometry" />
        </mxCell>
        <mxCell id="wKDr3arcscV5EmYd3ngJ-53" value="Extraer loopbacks sin máscara:&#xa;        {nodo: ip.split(&#39;/&#39;)[0]}" style="whiteSpace=wrap;strokeWidth=2;" vertex="1" parent="wKDr3arcscV5EmYd3ngJ-49">
          <mxGeometry x="43" y="442" width="260" height="102" as="geometry" />
        </mxCell>
        <mxCell id="wKDr3arcscV5EmYd3ngJ-54" value="Retornar dict nodo-&gt;loopback" style="whiteSpace=wrap;strokeWidth=2;" vertex="1" parent="wKDr3arcscV5EmYd3ngJ-49">
          <mxGeometry x="43" y="619" width="260" height="78" as="geometry" />
        </mxCell>
        <mxCell id="wKDr3arcscV5EmYd3ngJ-55" value="" style="curved=1;startArrow=none;endArrow=block;exitX=0.5;exitY=0.99;entryX=0.5;entryY=-0.01;rounded=0;" edge="1" parent="wKDr3arcscV5EmYd3ngJ-49" source="wKDr3arcscV5EmYd3ngJ-50" target="wKDr3arcscV5EmYd3ngJ-51">
          <mxGeometry relative="1" as="geometry">
            <Array as="points" />
          </mxGeometry>
        </mxCell>
        <mxCell id="wKDr3arcscV5EmYd3ngJ-56" value="" style="curved=1;startArrow=none;endArrow=block;exitX=0.5;exitY=0.99;entryX=0.5;entryY=-0.01;rounded=0;" edge="1" parent="wKDr3arcscV5EmYd3ngJ-49" source="wKDr3arcscV5EmYd3ngJ-51" target="wKDr3arcscV5EmYd3ngJ-52">
          <mxGeometry relative="1" as="geometry">
            <Array as="points" />
          </mxGeometry>
        </mxCell>
        <mxCell id="wKDr3arcscV5EmYd3ngJ-57" value="" style="curved=1;startArrow=none;endArrow=block;exitX=0.5;exitY=0.99;entryX=0.5;entryY=0;rounded=0;" edge="1" parent="wKDr3arcscV5EmYd3ngJ-49" source="wKDr3arcscV5EmYd3ngJ-52" target="wKDr3arcscV5EmYd3ngJ-53">
          <mxGeometry relative="1" as="geometry">
            <Array as="points" />
          </mxGeometry>
        </mxCell>
        <mxCell id="wKDr3arcscV5EmYd3ngJ-58" value="" style="curved=1;startArrow=none;endArrow=block;exitX=0.5;exitY=1;entryX=0.5;entryY=-0.01;rounded=0;" edge="1" parent="wKDr3arcscV5EmYd3ngJ-49" source="wKDr3arcscV5EmYd3ngJ-53" target="wKDr3arcscV5EmYd3ngJ-54">
          <mxGeometry relative="1" as="geometry">
            <Array as="points" />
          </mxGeometry>
        </mxCell>
        <mxCell id="wKDr3arcscV5EmYd3ngJ-59" value="ssh_ru(cmd)" style="whiteSpace=wrap;strokeWidth=2;verticalAlign=top;" vertex="1" parent="1">
          <mxGeometry x="2638" y="174" width="345" height="669" as="geometry" />
        </mxCell>
        <mxCell id="wKDr3arcscV5EmYd3ngJ-60" value="ssh_ru(cmd)" style="shape=trapezoid;perimeter=trapezoidPerimeter;fixedSize=1;strokeWidth=2;whiteSpace=wrap;" vertex="1" parent="wKDr3arcscV5EmYd3ngJ-59">
          <mxGeometry x="110" y="46" width="141" height="39" as="geometry" />
        </mxCell>
        <mxCell id="wKDr3arcscV5EmYd3ngJ-61" value="remote_cmd = f&#39;PATH=$PATH:/usr/sbin:/sbin {cmd}&#39;" style="whiteSpace=wrap;strokeWidth=2;" vertex="1" parent="wKDr3arcscV5EmYd3ngJ-59">
          <mxGeometry x="43" y="160" width="275" height="102" as="geometry" />
        </mxCell>
        <mxCell id="wKDr3arcscV5EmYd3ngJ-62" value="subprocess.run([&#xa;        &#39;ssh&#39;, &#39;-o&#39;, &#39;StrictHostKeyChecking=no&#39;,&#xa;        &#39;root@ru.across-tc32.svc.cluster.local&#39;,&#xa;        remote_cmd])" style="whiteSpace=wrap;strokeWidth=2;" vertex="1" parent="wKDr3arcscV5EmYd3ngJ-59">
          <mxGeometry x="51" y="337" width="260" height="174" as="geometry" />
        </mxCell>
        <mxCell id="wKDr3arcscV5EmYd3ngJ-63" value="Retornar CompletedProcess" style="whiteSpace=wrap;strokeWidth=2;" vertex="1" parent="wKDr3arcscV5EmYd3ngJ-59">
          <mxGeometry x="52" y="586" width="257" height="54" as="geometry" />
        </mxCell>
        <mxCell id="wKDr3arcscV5EmYd3ngJ-64" value="" style="curved=1;startArrow=none;endArrow=block;exitX=0.5;exitY=0.99;entryX=0.5;entryY=0;rounded=0;" edge="1" parent="wKDr3arcscV5EmYd3ngJ-59" source="wKDr3arcscV5EmYd3ngJ-60" target="wKDr3arcscV5EmYd3ngJ-61">
          <mxGeometry relative="1" as="geometry">
            <Array as="points" />
          </mxGeometry>
        </mxCell>
        <mxCell id="wKDr3arcscV5EmYd3ngJ-65" value="" style="curved=1;startArrow=none;endArrow=block;exitX=0.5;exitY=1;entryX=0.5;entryY=0;rounded=0;" edge="1" parent="wKDr3arcscV5EmYd3ngJ-59" source="wKDr3arcscV5EmYd3ngJ-61" target="wKDr3arcscV5EmYd3ngJ-62">
          <mxGeometry relative="1" as="geometry">
            <Array as="points" />
          </mxGeometry>
        </mxCell>
        <mxCell id="wKDr3arcscV5EmYd3ngJ-66" value="" style="curved=1;startArrow=none;endArrow=block;exitX=0.5;exitY=1;entryX=0.5;entryY=-0.01;rounded=0;" edge="1" parent="wKDr3arcscV5EmYd3ngJ-59" source="wKDr3arcscV5EmYd3ngJ-62" target="wKDr3arcscV5EmYd3ngJ-63">
          <mxGeometry relative="1" as="geometry">
            <Array as="points" />
          </mxGeometry>
        </mxCell>
      </root>
    </mxGraphModel>
  </diagram>
</mxfile>
